<svg xmlns="http://www.w3.org/2000/svg" viewBox="0 0 618.89 202.14"><defs><style>.cls-1,.cls-2,.cls-3{isolation:isolate;}.cls-2{font-size:150px;}.cls-2,.cls-3,.cls-4{fill:#005f5d;}.cls-2,.cls-3{font-family:SketsaRamadhanAlternates, Sketsa Ramadhan Alternates;}.cls-3{font-size:97px;}.cls-5{fill:none;stroke:#005f5d;stroke-linecap:round;stroke-linejoin:round;stroke-width:7px;}.cls-6{fill:#be3724;}.cls-7{fill:#eab051;}.cls-8{fill:#448792;}</style></defs><g id="Capa_2" data-name="Capa 2"><g id="Capa_1-2" data-name="Capa 1"><g class="cls-1"><text class="cls-2" transform="translate(156.04 150.68)">Kard</text><text class="cls-3" transform="translate(394.23 150.68)"> </text><text class="cls-2" transform="translate(413.54 150.68)">Ma</text></g><path class="cls-4" d="M55.85,177.32a3.63,3.63,0,0,1-3.24-5.58c4.79-8.35,9.63-16.69,14.44-25l6.48-11.22a3.4,3.4,0,0,1,3.67-1.84,3.69,3.69,0,0,1,3.13,2.74,4,4,0,0,1-.76,3.33c-2.5,4.36-5,8.71-7.54,13.06q-6.48,11.22-13,22.43A3.48,3.48,0,0,1,55.85,177.32Z"/><path class="cls-4" d="M34.48,155.27c3.89,3.89,7.64,7.58,11.31,11.36a4.92,4.92,0,0,1,1.28,2.46,3.47,3.47,0,0,1-2.19,3.68,3.42,3.42,0,0,1-4.1-.85c-1.94-1.92-3.86-3.85-5.78-5.77l-7.9-7.91c-1.87-1.88-1.85-3.93,0-5.8,4.56-4.56,9.1-9.14,13.68-13.68,1.91-1.9,4.36-1.57,5.81.69a3.46,3.46,0,0,1-.64,4.48Q40.52,149.42,35,154.88A6.05,6.05,0,0,1,34.48,155.27Z"/><path class="cls-4" d="M96.41,155.48,85,144.07c-2.3-2.3-1.47-5.49,1.67-6.41a3.27,3.27,0,0,1,3.37,1.1q4.85,4.81,9.66,9.65l4.18,4.19a3.62,3.62,0,0,1,.07,5.42Q97,165,90,171.93a3.6,3.6,0,0,1-5.26,0,3.52,3.52,0,0,1,.12-5.23c3.61-3.64,7.24-7.25,10.87-10.87A2.68,2.68,0,0,1,96.41,155.48Z"/><path class="cls-5" d="M3.5,66.4A61,61,0,0,0,53.86,126a59.64,59.64,0,0,0,10.67.94,60.69,60.69,0,0,0,9.78-.78l.33-.05A61.05,61.05,0,0,0,125.56,66.3"/><path class="cls-5" d="M3.5,66.4a81.87,81.87,0,0,1,25.81,7.11A83,83,0,0,1,54,91.05a82.83,82.83,0,0,1,10,12.57,82.16,82.16,0,0,1,6,10.82"/><path class="cls-5" d="M69.52,96.18c1.45-1.77,3-3.48,4.57-5.12A82.63,82.63,0,0,1,125.57,66.3"/><path class="cls-5" d="M48.83,60.08c1-18.65,15.22-29.9,15.22-29.9s14.25,11.36,15.22,30"/><line class="cls-5" x1="64.06" y1="30.18" x2="64.06" y2="52.95"/><path class="cls-5" d="M54,91.06A63.13,63.13,0,0,1,64,74.81,103.25,103.25,0,0,1,79.28,60.18l2-1.55a129.36,129.36,0,0,1,19-12c.12,2.18.19,4.36.19,6.58A116.52,116.52,0,0,1,98.67,73.6"/><path class="cls-5" d="M64,74.81C49.34,57.17,27.74,46.6,27.74,46.6c-.12,2.18-.19,4.36-.19,6.58a115.72,115.72,0,0,0,1.76,20.35"/><polygon class="cls-6" points="95.78 21.53 102.23 27.87 95.78 34.1 89.55 27.87 95.78 21.53"/><polygon class="cls-7" points="31.29 21.53 37.74 27.87 31.29 34.1 25.06 27.87 31.29 21.53"/><polygon class="cls-8" points="63.78 0 70.23 6.34 63.78 12.57 57.56 6.34 63.78 0"/></g></g></svg>