<?xml version="1.0" encoding="utf-8"?>
<!-- Generator: Adobe Illustrator 24.2.0, SVG Export Plug-In . SVG Version: 6.00 Build 0)  -->
<svg version="1.1" id="Layer_1" xmlns="http://www.w3.org/2000/svg" xmlns:xlink="http://www.w3.org/1999/xlink" x="0px" y="0px"
	 viewBox="0 0 240 200" style="enable-background:new 0 0 240 200;" xml:space="preserve">
<style type="text/css">
	.st0{fill:none;}
	.st1{fill:#EF6E38;}
	.st2{fill:#F9F6DA;stroke:#EF6E38;stroke-linecap:round;stroke-linejoin:round;stroke-miterlimit:10;}
</style>
<g>
	<g>
		<path class="st0" d="M-101.16-102.45"/>
		<path class="st0" d="M-17.34,11.88"/>
	</g>
</g>
<g>
	<g>
		<path class="st1" d="M165.45,90.01L120,158.02c18.83,0,37.67-7.12,52.03-21.48s21.52-33.2,21.48-52.03
			C183.96,84.49,174.42,86.33,165.45,90.01z"/>
		<path class="st1" d="M74.55,90.01c-8.97-3.68-18.51-5.52-28.06-5.49c-0.04,18.83,7.12,37.67,21.48,52.03s33.2,21.48,52.03,21.48
			L74.55,90.01z"/>
		<path class="st2" d="M159.78,61.98c-8.83,3.63-16.95,8.98-23.82,15.82L120,158.02c17.41-7.16,32.08-20.99,39.85-39.76
			c3.83-9.25,5.63-18.83,5.6-28.26C165.42,80.32,163.46,70.79,159.78,61.98z"/>
		<path class="st2" d="M104.04,77.8c-6.88-6.84-14.99-12.18-23.82-15.82c-3.67,8.81-5.64,18.34-5.66,28.03
			c-0.03,9.42,1.77,19.01,5.6,28.26c7.77,18.77,22.44,32.59,39.85,39.75L104.04,77.8z"/>
		<circle class="st1" cx="120" cy="44.39" r="2.42"/>
		<circle class="st1" cx="97.83" cy="46.58" r="2.42"/>
		<circle class="st1" cx="142.17" cy="46.58" r="2.42"/>
		<path class="st1" d="M135.96,77.8c3.63,8.69,5.64,18.24,5.64,28.25c0,20.31-8.26,38.7-21.6,51.98
			c-13.34-13.28-21.6-31.67-21.6-51.98c0-10.01,2.01-19.56,5.64-28.25c3.74-8.95,9.2-17,15.96-23.73
			C126.76,60.8,132.23,68.85,135.96,77.8z"/>
	</g>
</g>
</svg>
