<?xml version="1.0" encoding="utf-8"?>
<!-- Generator: Adobe Illustrator 24.2.0, SVG Export Plug-In . SVG Version: 6.00 Build 0)  -->
<svg version="1.1" id="Layer_1" xmlns="http://www.w3.org/2000/svg" xmlns:xlink="http://www.w3.org/1999/xlink" x="0px" y="0px"
	 viewBox="0 0 240 200" style="enable-background:new 0 0 240 200;" xml:space="preserve">
<style type="text/css">
	.st0{fill:#FFFFFF;stroke:#EF6E38;stroke-width:3;stroke-linecap:round;stroke-linejoin:round;stroke-miterlimit:10;}
	.st1{fill:#F15A24;}
	.st2{fill:none;}
</style>
<g>
	<path class="st0" d="M164.65,90.17L120,156.99c18.49,0,37-6.99,51.11-21.11s21.15-32.62,21.11-51.11
		C182.85,84.75,173.46,86.55,164.65,90.17z"/>
	<path class="st0" d="M75.35,90.17c-8.81-3.62-18.18-5.42-27.57-5.4c-0.04,18.49,6.99,37,21.11,51.11s32.62,21.11,51.11,21.11
		L75.35,90.17z"/>
	<path class="st0" d="M159.08,62.62c-8.67,3.58-16.65,8.81-23.4,15.54L120,156.99c17.1-7.04,31.52-20.62,39.15-39.06
		c3.76-9.08,5.52-18.51,5.5-27.77C164.63,80.64,162.7,71.3,159.08,62.62z"/>
	<path class="st0" d="M104.31,78.17c-6.75-6.73-14.73-11.96-23.4-15.54c-3.6,8.65-5.54,18.02-5.56,27.55
		c-0.02,9.26,1.74,18.67,5.5,27.77c7.63,18.45,22.05,32.03,39.15,39.06L104.31,78.17z"/>
	<circle class="st1" cx="120" cy="45.36" r="2.37"/>
	<circle class="st1" cx="98.22" cy="47.51" r="2.37"/>
	<circle class="st1" cx="141.78" cy="47.51" r="2.37"/>
	<path class="st0" d="M135.69,78.17c3.58,8.55,5.54,17.92,5.54,27.75c0,19.96-8.12,38.02-21.23,51.07
		c-13.11-13.05-21.23-31.11-21.23-51.07c0-9.84,1.96-19.22,5.54-27.75c3.68-8.79,9.04-16.71,15.69-23.32
		C126.65,61.48,132.01,69.37,135.69,78.17z"/>
</g>
<g>
	<g>
		<path class="st2" d="M-101.16-102.45"/>
		<path class="st2" d="M-17.34,11.88"/>
	</g>
</g>
</svg>
