<?xml version="1.0" encoding="utf-8"?>
<!-- Generator: Adobe Illustrator 24.2.0, SVG Export Plug-In . SVG Version: 6.00 Build 0)  -->
<svg version="1.1" id="Layer_1" xmlns="http://www.w3.org/2000/svg" xmlns:xlink="http://www.w3.org/1999/xlink" x="0px" y="0px"
	 viewBox="0 0 646 203" style="enable-background:new 0 0 646 203;" xml:space="preserve">
<style type="text/css">
	.st0{fill:#1E5051;}
	.st1{font-family:'REZ';}
	.st2{font-size:172.6448px;}
	.st3{fill:#FFFFFF;stroke:#EF6E38;stroke-width:3;stroke-miterlimit:10;}
	.st4{fill:#EF6E38;}
	.st5{font-family:'AvenirNext-Regular';}
	.st6{font-size:60.4257px;}
</style>
<g>
	<text transform="matrix(1 0 0 1 17.0769 120.6503)" class="st0 st1 st2">KARD MA</text>
	<g>
		<path class="st3" d="M376.92,77.03l-21.83,32.67c9.04,0,18.09-3.42,24.99-10.32c6.9-6.9,10.34-15.95,10.32-24.99
			C385.82,74.38,381.23,75.26,376.92,77.03z"/>
		<path class="st3" d="M333.26,77.03c-4.31-1.77-8.89-2.65-13.48-2.64c-0.02,9.04,3.42,18.09,10.32,24.99
			c6.9,6.9,15.95,10.32,24.99,10.32L333.26,77.03z"/>
		<path class="st3" d="M374.2,63.56c-4.24,1.75-8.14,4.31-11.44,7.6l-7.67,38.54c8.36-3.44,15.41-10.08,19.14-19.1
			c1.84-4.44,2.7-9.05,2.69-13.58C376.91,72.37,375.97,67.8,374.2,63.56z"/>
		<path class="st3" d="M347.42,71.16c-3.3-3.29-7.2-5.85-11.44-7.6c-1.76,4.23-2.71,8.81-2.72,13.47
			c-0.01,4.53,0.85,9.13,2.69,13.58c3.73,9.02,10.78,15.66,19.14,19.1L347.42,71.16z"/>
		<circle class="st3" cx="355.09" cy="55.12" r="1.16"/>
		<circle class="st3" cx="344.44" cy="56.17" r="1.16"/>
		<circle class="st3" cx="365.74" cy="56.17" r="1.16"/>
		<path class="st3" d="M362.76,71.16c1.75,4.18,2.71,8.76,2.71,13.57c0,9.76-3.97,18.59-10.38,24.97
			c-6.41-6.38-10.38-15.21-10.38-24.97c0-4.81,0.96-9.4,2.71-13.57c1.8-4.3,4.42-8.17,7.67-11.4
			C358.34,63,360.96,66.86,362.76,71.16z"/>
	</g>
	<text transform="matrix(1 0 0 1 106.738 180.2611)" class="st4 st5 st6">card maker app</text>
</g>
</svg>
