<?xml version="1.0" encoding="utf-8"?>
<!-- Generator: Adobe Illustrator 24.2.0, SVG Export Plug-In . SVG Version: 6.00 Build 0)  -->
<svg version="1.1" id="Layer_1" xmlns="http://www.w3.org/2000/svg" xmlns:xlink="http://www.w3.org/1999/xlink" x="0px" y="0px"
	 viewBox="0 0 246 442" style="enable-background:new 0 0 246 442;" xml:space="preserve">
<style type="text/css">
	.st0{fill:none;}
	.st1{fill:#1E5051;}
	.st2{fill:#F9F6DA;}
	.st3{fill:#EF6E38;}
	.st4{fill:#F9F6DA;stroke:#EF6E38;stroke-miterlimit:10;}
	.st5{fill:#EF6E38;stroke:#EF6E38;stroke-width:4;stroke-linecap:round;stroke-linejoin:round;stroke-miterlimit:10;}
</style>
<g>
	<g>
		<g>
			<path class="st0" d="M148.71,187.8"/>
			<path class="st0" d="M232.53,302.13"/>
			<path class="st1" d="M43.59,402.79c-35-41.5-29.86-120.5-29.86-122.15V105.47c0-10.13,6.63-17.03,15.15-17.03
				c10.13,0,16.3,8.27,16.3,18.4l-0.03,90.04c0,2.54,2.06,4.59,4.6,4.59c2.54,0,4.59-2.05,4.59-4.59L54.31,48.79
				c0-10.13,8.22-18.34,18.35-18.34c10.13,0,18.35,8.21,18.35,18.34l0.02,140.54c0,2.88,2.33,5.21,5.21,5.21
				c2.88,0,5.21-2.33,5.21-5.21l0-161.92c0-10.14,8.21-18.35,18.35-18.35s18.35,8.21,18.35,18.35l0.13,160.13
				c0,2.61,2.11,4.72,4.72,4.72c2.53,0,4.56-1.98,4.7-4.47c0.01,0,0.03-135.61,0.03-135.61c0-10.13,8.21-18.35,18.34-18.35
				s18.35,8.21,18.35,18.35l0.13,198.26c0,2.83,2.29,5.12,5.12,5.12s5.12-2.29,5.12-5.12l0.09-70.62c0-10.14,8.22-18.34,18.35-18.34
				c10.13,0,18.34,8.22,18.34,18.35l-0.05,122.29c0.06,44.16-20.94,86.16-38.94,102.66C146.37,447.16,73.06,437.74,43.59,402.79z"/>
		</g>
	</g>
	<g>
		<g>
			<path class="st2" d="M163.83,361.91c0,11-9,20-20,20H80.35c-11,0-20-9-20-20V257.67c0-11,9-20,20-20h63.48c11,0,20,9,20,20
				V361.91z"/>
		</g>
		<g>
			<g>
				<path class="st3" d="M134.31,285.62l-22.22,33.26c9.2,0,18.42-3.48,25.44-10.5c7.02-7.02,10.52-16.24,10.5-25.44
					C143.36,282.92,138.7,283.82,134.31,285.62z"/>
				<path class="st3" d="M89.87,285.62c-4.39-1.8-9.05-2.7-13.72-2.69c-0.02,9.2,3.48,18.42,10.5,25.44
					c7.02,7.02,16.24,10.5,25.44,10.5L89.87,285.62z"/>
				<path class="st4" d="M131.54,271.92c-4.32,1.78-8.29,4.39-11.65,7.73l-7.8,39.23c8.51-3.5,15.68-10.26,19.48-19.44
					c1.87-4.52,2.75-9.21,2.74-13.82C134.3,280.88,133.34,276.22,131.54,271.92z"/>
				<path class="st4" d="M104.28,279.65c-3.36-3.34-7.33-5.96-11.65-7.73c-1.8,4.31-2.76,8.97-2.77,13.71
					c-0.01,4.61,0.87,9.29,2.74,13.82c3.8,9.18,10.97,15.93,19.48,19.44L104.28,279.65z"/>
				<circle class="st3" cx="112.09" cy="263.32" r="1.18"/>
				<circle class="st3" cx="101.25" cy="264.38" r="1.18"/>
				<circle class="st3" cx="122.93" cy="264.38" r="1.18"/>
				<path class="st3" d="M119.89,279.65c1.78,4.25,2.76,8.92,2.76,13.81c0,9.93-4.04,18.92-10.56,25.41
					c-6.52-6.49-10.56-15.48-10.56-25.41c0-4.9,0.98-9.56,2.76-13.81c1.83-4.38,4.5-8.31,7.8-11.6
					C115.4,271.34,118.07,275.27,119.89,279.65z"/>
			</g>
			<g>
				<line class="st5" x1="83.12" y1="331.3" x2="141.06" y2="331.3"/>
				<line class="st5" x1="83.12" y1="344.37" x2="141.06" y2="344.37"/>
				<line class="st5" x1="83.12" y1="357.44" x2="141.06" y2="357.44"/>
			</g>
		</g>
	</g>
</g>
</svg>
