<?xml version="1.0" encoding="utf-8"?>
<!-- Generator: Adobe Illustrator 24.2.0, SVG Export Plug-In . SVG Version: 6.00 Build 0)  -->
<svg version="1.1" id="Layer_1" xmlns="http://www.w3.org/2000/svg" xmlns:xlink="http://www.w3.org/1999/xlink" x="0px" y="0px"
	 viewBox="0 0 937 455" style="enable-background:new 0 0 937 455;" xml:space="preserve">
<style type="text/css">
	.st0{fill:none;}
	.st1{fill:#1E5051;}
	.st2{fill:#F9F6DA;}
	.st3{fill:#EF6E38;}
	.st4{fill:#F9F6DA;stroke:#EF6E38;stroke-miterlimit:10;}
	.st5{fill:#EF6E38;stroke:#EF6E38;stroke-width:4;stroke-linecap:round;stroke-linejoin:round;stroke-miterlimit:10;}
	.st6{font-family:'REZ';}
	.st7{font-size:172.6448px;}
	.st8{fill:#FFFFFF;stroke:#EF6E38;stroke-width:3;stroke-miterlimit:10;}
	.st9{font-family:'AvenirNext-Regular';}
	.st10{font-size:60.4257px;}
</style>
<g>
	<g>
		<g>
			<g>
				<path class="st0" d="M157.73,194.3"/>
				<path class="st0" d="M241.56,308.63"/>
				<path class="st1" d="M52.61,409.29c-35-41.5-29.86-120.5-29.86-122.15V111.97c0-10.13,6.63-17.03,15.15-17.03
					c10.13,0,16.3,8.27,16.3,18.4l-0.03,90.04c0,2.54,2.06,4.59,4.6,4.59c2.54,0,4.59-2.05,4.59-4.59L63.34,55.29
					c0-10.13,8.22-18.34,18.35-18.34c10.13,0,18.35,8.21,18.35,18.34l0.02,140.54c0,2.88,2.33,5.21,5.21,5.21
					c2.88,0,5.21-2.33,5.21-5.21l0-161.92c0-10.14,8.21-18.35,18.35-18.35s18.35,8.21,18.35,18.35l0.13,160.13
					c0,2.61,2.11,4.72,4.72,4.72c2.53,0,4.56-1.98,4.7-4.47c0.01,0,0.03-135.61,0.03-135.61c0-10.13,8.21-18.35,18.34-18.35
					s18.35,8.21,18.35,18.35l0.13,198.26c0,2.83,2.29,5.12,5.12,5.12s5.12-2.29,5.12-5.12l0.09-70.62
					c0-10.14,8.22-18.34,18.35-18.34c10.13,0,18.34,8.22,18.34,18.35l-0.05,122.29c0.06,44.16-20.94,86.16-38.94,102.66
					C155.39,453.66,82.09,444.24,52.61,409.29z"/>
			</g>
		</g>
		<g>
			<g>
				<path class="st2" d="M172.85,368.41c0,11-9,20-20,20H89.37c-11,0-20-9-20-20V264.17c0-11,9-20,20-20h63.48c11,0,20,9,20,20
					V368.41z"/>
			</g>
			<g>
				<g>
					<path class="st3" d="M143.34,292.12l-22.22,33.26c9.2,0,18.42-3.48,25.44-10.5c7.02-7.02,10.52-16.24,10.5-25.44
						C152.39,289.42,147.72,290.32,143.34,292.12z"/>
					<path class="st3" d="M98.89,292.12c-4.39-1.8-9.05-2.7-13.72-2.69c-0.02,9.2,3.48,18.42,10.5,25.44
						c7.02,7.02,16.24,10.5,25.44,10.5L98.89,292.12z"/>
					<path class="st4" d="M140.57,278.42c-4.32,1.78-8.29,4.39-11.65,7.73l-7.8,39.23c8.51-3.5,15.68-10.26,19.48-19.44
						c1.87-4.52,2.75-9.21,2.74-13.82C143.32,287.38,142.36,282.72,140.57,278.42z"/>
					<path class="st4" d="M113.31,286.15c-3.36-3.34-7.33-5.96-11.65-7.73c-1.8,4.31-2.76,8.97-2.77,13.71
						c-0.01,4.61,0.87,9.29,2.74,13.82c3.8,9.18,10.97,15.93,19.48,19.44L113.31,286.15z"/>
					<circle class="st3" cx="121.11" cy="269.82" r="1.18"/>
					<circle class="st3" cx="110.27" cy="270.88" r="1.18"/>
					<circle class="st3" cx="131.95" cy="270.88" r="1.18"/>
					<path class="st3" d="M128.92,286.15c1.78,4.25,2.76,8.92,2.76,13.81c0,9.93-4.04,18.92-10.56,25.41
						c-6.52-6.49-10.56-15.48-10.56-25.41c0-4.9,0.98-9.56,2.76-13.81c1.83-4.38,4.5-8.31,7.8-11.6
						C124.42,277.84,127.09,281.77,128.92,286.15z"/>
				</g>
				<g>
					<line class="st5" x1="92.14" y1="337.8" x2="150.08" y2="337.8"/>
					<line class="st5" x1="92.14" y1="350.87" x2="150.08" y2="350.87"/>
					<line class="st5" x1="92.14" y1="363.94" x2="150.08" y2="363.94"/>
				</g>
			</g>
		</g>
	</g>
	<g>
		<text transform="matrix(1 0 0 1 302.6621 316.379)" class="st1 st6 st7">KARD MA</text>
		<g>
			<path class="st8" d="M662.51,272.76l-21.83,32.67c9.04,0,18.09-3.42,24.99-10.32c6.9-6.9,10.34-15.95,10.32-24.99
				C671.4,270.11,666.82,270.99,662.51,272.76z"/>
			<path class="st8" d="M618.84,272.76c-4.31-1.77-8.89-2.65-13.48-2.64c-0.02,9.04,3.42,18.09,10.32,24.99
				c6.9,6.9,15.95,10.32,24.99,10.32L618.84,272.76z"/>
			<path class="st8" d="M659.79,259.29c-4.24,1.75-8.14,4.31-11.44,7.6l-7.67,38.54c8.36-3.44,15.41-10.08,19.14-19.1
				c1.84-4.44,2.7-9.05,2.69-13.58C662.49,268.1,661.55,263.53,659.79,259.29z"/>
			<path class="st8" d="M633.01,266.89c-3.3-3.29-7.2-5.85-11.44-7.6c-1.76,4.23-2.71,8.81-2.72,13.47
				c-0.01,4.53,0.85,9.13,2.69,13.58c3.73,9.02,10.78,15.66,19.14,19.1L633.01,266.89z"/>
			<circle class="st8" cx="640.68" cy="250.85" r="1.16"/>
			<circle class="st8" cx="630.03" cy="251.89" r="1.16"/>
			<circle class="st8" cx="651.32" cy="251.89" r="1.16"/>
			<path class="st8" d="M648.34,266.89c1.75,4.18,2.71,8.76,2.71,13.57c0,9.76-3.97,18.59-10.38,24.97
				c-6.41-6.38-10.38-15.21-10.38-24.97c0-4.81,0.96-9.4,2.71-13.57c1.8-4.3,4.42-8.17,7.67-11.4
				C643.92,258.73,646.55,262.59,648.34,266.89z"/>
		</g>
		<text transform="matrix(1 0 0 1 392.3232 375.9898)" class="st3 st9 st10">card maker app</text>
	</g>
</g>
</svg>
